# xmcd
#
# Track frame offsets:
#	150
#	12963
#	26371
#	45868
#	61663
#	70527
#	82739
#	94823
#	107050
#	124376
#	146009
#	164507
#	193771
#	206023
#	220488
#	236686
#	259325
#	279160
#	303446
#	324134
#
# Disc length: 4538 seconds
#
# Revision: 1
# Processed by: cddbd v1.5.2PL0 Copyright (c) Steve Scherf et al.
# Submitted via: audiograbber 1.83.01
#
DISCID=1011b814
DTITLE=100 chansons d'amour  - Compilation Slows vol.2
DYEAR=2007
DGENRE=Variété Internationale
TTITLE0=01 - Percy Sledge - When a man loves a woman
TTITLE1=02 - Ben E King - Stand by me
TTITLE2=03 - Al Jarreau - Learn on me
TTITLE3=04 - Earl Duke - I've been loving you too long
TTITLE4=05 - Oliver Cheatham - Ain't no sunshine
TTITLE5=06 - The Platters - Only you
TTITLE6=07 - Aaron Neville - Tell it like it is
TTITLE7=08 - Rarebird - Sympathy
TTITLE8=09 - Oscar Benton - Bensonhurst blues
TTITLE9=10 - Timmy Thomas - Why can't we live together
TTITLE10=11 - Don McLean - American Pie
TTITLE11=12 - Al Stewart - Year of the cat
TTITLE12=13 - Brook Benton - Rainy night in Georgia
TTITLE13=14 - Jackie de Shannon - What the world needs now is love
TTITLE14=15 - Nina Simone - My baby just cares for you
TTITLE15=16 - Ray Charles - Dee Dee Bridgewater
TTITLE16=17 - Shirley Bassey - The power of love
TTITLE17=18 - Caecille Norby - Calling you
TTITLE18=19 - Cassandra Wilson - Fragile
TTITLE19=20 - James Brown - It's a man man's world (live)
EXTD=
EXTT0=
EXTT1=
EXTT2=
EXTT3=
EXTT4=
EXTT5=
EXTT6=
EXTT7=
EXTT8=
EXTT9=
EXTT10=
EXTT11=
EXTT12=
EXTT13=
EXTT14=
EXTT15=
EXTT16=
EXTT17=
EXTT18=
EXTT19=
PLAYORDER=
